<?xml version="1.0" encoding="UTF-8" standalone="no"?>
<!-- Created with Inkscape (http://www.inkscape.org/) -->

<svg
   width="100"
   height="100"
   viewBox="0 0 26.458333 26.458333"
   version="1.1"
   id="svg5"
   xml:space="preserve"
   inkscape:version="1.2.2 (732a01da63, 2022-12-09)"
   sodipodi:docname="error.svg"
   xmlns:inkscape="http://www.inkscape.org/namespaces/inkscape"
   xmlns:sodipodi="http://sodipodi.sourceforge.net/DTD/sodipodi-0.dtd"
   xmlns="http://www.w3.org/2000/svg"
   xmlns:svg="http://www.w3.org/2000/svg"><sodipodi:namedview
     id="namedview7"
     pagecolor="#ffffff"
     bordercolor="#000000"
     borderopacity="0.25"
     inkscape:showpageshadow="2"
     inkscape:pageopacity="0.0"
     inkscape:pagecheckerboard="0"
     inkscape:deskcolor="#d1d1d1"
     inkscape:document-units="mm"
     showgrid="false"
     inkscape:zoom="4.051698"
     inkscape:cx="37.885351"
     inkscape:cy="52.447147"
     inkscape:window-width="1920"
     inkscape:window-height="991"
     inkscape:window-x="-9"
     inkscape:window-y="-9"
     inkscape:window-maximized="1"
     inkscape:current-layer="layer1" /><defs
     id="defs2" /><g
     inkscape:label="Capa 1"
     inkscape:groupmode="layer"
     id="layer1"><path
       style="fill:#000000;stroke-width:0.0941206"
       d="M 11.335239,24.992342 C 9.59455,24.67371 7.965257,24.018408 6.5378433,23.062828 5.5976412,22.433411 4.0373377,20.879337 3.4213597,19.958786 1.2710735,16.745283 0.76807776,13.046272 1.9850666,9.3963414 3.0975433,6.0598591 5.8050428,3.2888367 9.1492735,2.064049 14.093058,0.25344245 19.62486,1.9170959 22.802357,6.1701251 c 0.804156,1.0763494 1.610486,2.7746273 1.921575,4.0471839 0.139201,0.569429 0.290655,1.120841 0.33656,1.225359 0.04591,0.104519 0.06922,0.951604 0.05181,1.882411 -0.02758,1.474288 -0.06446,1.817266 -0.286243,2.6615 -0.623225,2.372401 -1.632096,4.119545 -3.330096,5.767 -1.025198,0.994681 -1.788075,1.539739 -3.000812,2.144015 -1.063493,0.529911 -1.806552,0.776088 -3.163807,1.048176 -1.102873,0.221092 -2.926587,0.242347 -3.996105,0.04657 z m 4.28767,-3.145322 c 3.075562,-0.897981 5.341035,-3.176659 6.238361,-6.274719 0.186643,-0.644393 0.215229,-0.955593 0.215229,-2.343134 0,-1.384725 -0.02897,-1.701379 -0.215248,-2.353014 C 20.898862,7.5095986 18.031047,4.9432613 14.640975,4.4149065 13.798263,4.2835668 11.799753,4.365684 11.064394,4.5618653 7.8674962,5.4147435 5.4508353,7.8361028 4.5638343,11.075063 4.3538556,11.841818 4.2805091,13.75878 4.4265192,14.66389 c 0.5815608,3.605075 3.3354666,6.509577 6.9318908,7.310961 0.969879,0.216117 3.328655,0.145411 4.264499,-0.127831 z m -2.853117,-2.734441 c -0.866696,-0.272664 -1.288024,-1.431513 -0.787723,-2.166608 0.354192,-0.520416 0.68064,-0.704947 1.247098,-0.704947 1.45653,0 1.998382,1.825101 0.800024,2.694694 -0.286137,0.207636 -0.891399,0.292635 -1.259399,0.176861 z M 11.770298,10.970273 V 7.2525115 h 1.458869 1.458868 v 3.7177615 3.717762 h -1.458868 -1.458869 z"
       id="path866" /></g></svg>
