<?xml version="1.0" encoding="UTF-8" standalone="no"?>
<!-- Created with Inkscape (http://www.inkscape.org/) -->

<svg
   width="100"
   height="100"
   viewBox="0 0 26.458333 26.458333"
   version="1.1"
   id="svg5"
   xml:space="preserve"
   inkscape:version="1.2.2 (732a01da63, 2022-12-09)"
   sodipodi:docname="profile.svg.2023_06_11_15_05_19.0.svg"
   xmlns:inkscape="http://www.inkscape.org/namespaces/inkscape"
   xmlns:sodipodi="http://sodipodi.sourceforge.net/DTD/sodipodi-0.dtd"
   xmlns="http://www.w3.org/2000/svg"
   xmlns:svg="http://www.w3.org/2000/svg"><sodipodi:namedview
     id="namedview7"
     pagecolor="#ffffff"
     bordercolor="#000000"
     borderopacity="0.25"
     inkscape:showpageshadow="2"
     inkscape:pageopacity="0.0"
     inkscape:pagecheckerboard="0"
     inkscape:deskcolor="#d1d1d1"
     inkscape:document-units="mm"
     showgrid="false"
     inkscape:zoom="4.051698"
     inkscape:cx="45.413059"
     inkscape:cy="52.200337"
     inkscape:window-width="1920"
     inkscape:window-height="991"
     inkscape:window-x="-9"
     inkscape:window-y="-9"
     inkscape:window-maximized="1"
     inkscape:current-layer="layer1" /><defs
     id="defs2" /><g
     inkscape:label="Capa 1"
     inkscape:groupmode="layer"
     id="layer1"><path
       style="display:inline;fill:#000000;stroke-width:0.1018"
       d="M 5.0909433,25.006174 C 4.1361895,24.709288 3.5699465,24.252893 3.1376858,23.431836 2.9229139,23.023889 2.9151507,22.82934 2.9128252,17.79676 l -0.00241,-5.21254 0.3572157,-0.59455 c 0.2274485,-0.378566 0.5289025,-0.707377 0.829825,-0.905135 0.9329233,-0.613089 0.767082,-0.603248 9.6806321,-0.574455 l 8.050721,0.02601 0.587353,0.280305 c 0.604252,0.28837 1.125939,0.751324 1.361229,1.207976 0.07364,0.142923 0.171196,0.259859 0.216791,0.259859 0.04559,0 0.0829,2.487556 0.0829,5.527902 0,3.174183 -0.04163,5.527902 -0.09778,5.527902 -0.05378,0 -0.125984,0.09682 -0.160454,0.215146 -0.1028,0.352903 -0.774634,0.952968 -1.402327,1.252521 l -0.587709,0.280473 -8.170553,0.02069 c -6.4945271,0.01645 -8.2519401,-0.0046 -8.5673141,-0.102685 z m 9.1370897,-3.809939 c 0.305215,-0.251947 0.307599,-0.263161 0.307599,-1.446979 v -1.193065 l 0.342845,-0.277537 c 1.314331,-1.063968 0.776635,-2.824849 -0.965988,-3.163483 -0.899237,-0.174743 -1.844782,0.23533 -2.285033,0.990994 -0.4395,0.754377 -0.302764,1.46572 0.397766,2.069302 l 0.426645,0.3676 v 1.177328 c 0,1.175265 5.59e-4,1.177811 0.320579,1.45354 0.432602,0.372734 1.020158,0.381734 1.455587,0.0223 z M 6.1220949,8.1973586 C 6.193981,6.6218326 6.3672278,5.9646152 7.0343658,4.7366292 7.4432504,3.9840045 7.6516643,3.7350136 8.4209016,3.0801432 9.4676185,2.1890475 10.27918,1.8059411 11.770143,1.4990969 12.882509,1.270169 14.469397,1.292804 15.56951,1.5532903 c 2.484896,0.5883773 4.224554,2.1516441 5.001445,4.4943287 0.171212,0.5162824 0.251372,1.0871373 0.295235,2.1024925 L 20.9264,9.5438987 H 19.32126 17.716116 V 8.5243173 c 0,-2.1673794 -0.877376,-3.6390996 -2.498218,-4.19054 C 14.715184,4.1627443 14.372472,4.1201436 13.49375,4.1194569 12.521276,4.118697 12.319409,4.1490291 11.711859,4.3872014 10.103501,5.017711 9.2777746,6.4518562 9.2732879,8.6225818 l -0.0019,0.9213169 H 7.6660202 6.0606567 Z"
       id="path1007"
       inkscape:label="Password" /></g></svg>
