<?xml version="1.0" encoding="UTF-8" standalone="no"?>
<!-- Created with Inkscape (http://www.inkscape.org/) -->

<svg
   width="500"
   height="500"
   viewBox="0 0 132.29166 132.29167"
   version="1.1"
   id="svg5"
   xml:space="preserve"
   inkscape:version="1.2.2 (732a01da63, 2022-12-09)"
   sodipodi:docname="piq2.svg"
   xmlns:inkscape="http://www.inkscape.org/namespaces/inkscape"
   xmlns:sodipodi="http://sodipodi.sourceforge.net/DTD/sodipodi-0.dtd"
   xmlns="http://www.w3.org/2000/svg"
   xmlns:svg="http://www.w3.org/2000/svg"><sodipodi:namedview
     id="namedview7"
     pagecolor="#ffffff"
     bordercolor="#000000"
     borderopacity="0.25"
     inkscape:showpageshadow="2"
     inkscape:pageopacity="0.0"
     inkscape:pagecheckerboard="0"
     inkscape:deskcolor="#d1d1d1"
     inkscape:document-units="mm"
     showgrid="false"
     showguides="false"
     inkscape:zoom="2.043487"
     inkscape:cx="319.79651"
     inkscape:cy="220.94587"
     inkscape:window-width="1920"
     inkscape:window-height="991"
     inkscape:window-x="-9"
     inkscape:window-y="-9"
     inkscape:window-maximized="1"
     inkscape:current-layer="layer1" /><defs
     id="defs2" /><g
     inkscape:label="Capa 1"
     inkscape:groupmode="layer"
     id="layer1"><path
       style="fill:#00b555;fill-opacity:1;stroke:#000000;stroke-width:0.395999;stroke-linecap:square;stroke-linejoin:round;stroke-miterlimit:20;stroke-opacity:0;paint-order:stroke fill markers"
       d="M 12.451294,34.790381 12.634402,97.962391 66.651046,128.72441 120.11837,97.596176 119.93526,35.156597 66.284834,4.02836 Z"
       id="path4132"
       sodipodi:nodetypes="ccccccc" /><path
       style="fill:#55d18d;stroke:#000000;stroke-width:0.395999;stroke-linecap:square;stroke-linejoin:round;stroke-miterlimit:20;stroke-opacity:0;paint-order:stroke fill markers;fill-opacity:1"
       d="M 66.147502,33.829069 38.360974,49.713625 66.19328,65.872841 93.888255,49.942509 Z"
       id="path470" /><path
       style="fill:#00d162;fill-opacity:1;stroke:#000000;stroke-width:0.395999;stroke-linecap:square;stroke-linejoin:round;stroke-miterlimit:20;stroke-opacity:0;paint-order:stroke fill markers"
       d="m 38.360974,49.702518 -0.04578,32.741531 27.78653,16.159218 0.09155,-32.730426 z"
       id="path472"
       sodipodi:nodetypes="ccccc" /><path
       style="fill:#50e898;stroke:#000000;stroke-width:0.395999;stroke-linecap:square;stroke-linejoin:round;stroke-miterlimit:20;stroke-opacity:0;paint-order:stroke fill markers;fill-opacity:1"
       d="M 66.101726,65.872841 66.147502,98.557489 94.517767,82.346987 93.935123,49.91315 Z"
       id="path474"
       inkscape:highlight-color="#3b3fee" /><path
       style="fill:#00a54e;fill-opacity:1;stroke-width:0.999998"
       d="m 47.181665,78.287969 c -0.690425,-0.822997 -1.138898,-2.222341 -0.950604,-2.966089 0.03741,-0.147787 0.269649,-0.565804 0.523592,-0.942468 0.250998,-0.372288 0.526817,-0.821512 0.612932,-0.998272 0.760081,-1.560141 1.075206,-3.846025 0.974279,-7.067366 -0.02446,-0.780835 -0.03778,-0.922792 -0.09291,-0.990221 -0.141088,-0.172562 -1.183094,-0.836126 -1.466544,-0.9339 -0.668468,-0.230588 -1.13426,-0.01438 -1.464065,0.679577 -0.24191,0.509014 -0.245896,0.511645 -0.505942,0.333928 -0.121802,-0.08324 -0.22201,-0.160382 -0.222678,-0.171395 -0.0026,-0.04292 0.455172,-1.81698 0.554887,-2.150399 0.153227,-0.512344 0.24908,-0.702508 0.454355,-0.901409 0.301684,-0.292322 0.837157,-0.25633 1.611828,0.108321 0.813246,0.382814 1.26539,0.673574 5.320912,3.421713 l 4.172856,2.827654 0.08279,1.363369 0.08279,1.363372 -1.467339,-1.002761 -1.467339,-1.002765 0.0043,0.413591 c 0.0024,0.22748 0.01251,0.865241 0.02252,1.417247 0.01001,0.55201 0.01248,1.624204 0.0055,2.38267 -0.02649,2.880004 0.03333,4.204761 0.238408,5.279547 0.168219,0.881657 0.464043,1.636336 0.84716,2.161201 0.263868,0.361497 0.848051,0.78432 1.145624,0.829184 0.457784,0.06902 0.734117,-0.327444 0.77638,-1.113854 l 0.02073,-0.385396 0.21871,0.149465 0.218712,0.149466 0.02032,0.339568 c 0.0259,0.43395 -0.07606,1.346481 -0.199004,1.781194 -0.413443,1.46189 -1.189425,1.814055 -2.309497,1.048113 -0.987161,-0.675068 -1.771857,-1.809394 -2.235696,-3.231892 -0.43271,-1.327013 -0.502655,-2.281898 -0.482078,-6.581596 0.01642,-3.430137 0.01964,-4.746348 0.01297,-5.301194 l -0.0067,-0.556827 -1.367518,-0.934548 -1.367516,-0.934544 -0.01022,0.205411 c -0.0056,0.112988 -0.0092,0.970769 -0.0079,1.906208 0.0092,6.802184 -0.03521,8.301231 -0.281445,9.493216 -0.18204,0.881212 -0.51364,1.298548 -0.975042,1.227128 -0.292579,-0.04529 -0.736333,-0.349314 -1.042448,-0.714166 z"
       id="path2351" /><path
       style="fill:#00a54e;fill-opacity:1;stroke-width:0.999986"
       d="m 73.073623,55.133265 c -0.120607,0.02081 -1.250251,-0.001 -2.510453,-0.04854 -2.046625,-0.07714 -2.332975,-0.09996 -2.681918,-0.213662 C 67.554017,54.764393 66.753121,54.36354 62.94584,52.400639 59.709959,50.732307 58.321906,49.999772 58.126136,49.857055 57.879652,49.677374 57.78446,49.515027 57.20702,48.289556 56.852736,47.537673 56.550634,46.815596 56.535683,46.68494 l -0.02718,-0.237559 1.612888,-1.321716 1.612895,-1.32171 0.326041,-0.0354 c 0.400038,-0.04343 4.413188,0.108387 4.829783,0.182706 0.293035,0.05229 0.408943,0.109435 4.534658,2.236334 3.748179,1.932308 4.251932,2.201234 4.391049,2.344278 0.08644,0.08887 0.278525,0.419375 0.426873,0.734456 l 0.269743,0.572866 0.972054,0.0426 c 0.534622,0.02348 1.057659,0.06166 1.162292,0.08488 0.108191,0.02404 0.543693,0.224743 1.010203,0.465026 l 0.819975,0.422745 -0.710207,0.581961 -0.710207,0.581962 -0.364695,-0.19688 c -0.353411,-0.190859 -0.380118,-0.19754 -0.869809,-0.214493 l -0.50515,-0.01761 0.260637,0.573922 c 0.143348,0.315653 0.24474,0.649846 0.225325,0.742653 -0.05268,0.251794 -2.404821,2.171306 -2.729364,2.227299 z m -0.455398,-3.345721 -0.132749,-0.311548 -1.305649,-0.05256 -1.305649,-0.05256 -0.400955,-0.8722 -0.400952,-0.872198 1.302196,0.0505 1.302197,0.05049 -0.141698,-0.308249 -0.141702,-0.308245 -3.372108,-1.738453 -3.372103,-1.738458 -1.401804,-0.05627 -1.401791,-0.05627 -1.129937,0.925941 -1.129936,0.925943 0.415158,0.906067 0.415155,0.906069 3.975557,2.049677 3.975544,2.049681 1.399875,0.0562 1.399871,0.0562 0.792098,-0.649112 0.792098,-0.649113 z"
       id="path4873" /><path
       style="fill:#00a54e;fill-opacity:1;stroke-width:0.999998"
       d="m 79.634243,83.082718 -0.295677,-0.401367 0.249038,-0.548652 0.249039,-0.548656 2.438306,-0.676092 c 1.904133,-0.527949 2.453717,-0.658982 2.508627,-0.59798 0.03867,0.04297 0.174553,0.225735 0.301948,0.406147 l 0.231631,0.328022 -0.235473,0.5359 -0.235471,0.535897 -2.458154,0.684074 -2.458149,0.684071 z m -0.783906,-0.629478 -0.200489,-0.275116 -0.186469,-3.607791 -0.186463,-3.607795 0.170075,-0.371191 0.170076,-0.371192 0.295422,0.401017 0.295418,0.401015 0.170756,3.303854 0.17076,3.303859 -0.2493,0.54923 -0.2493,0.549228 z m 0.364027,-7.920719 c -0.149484,-0.203267 -0.273676,-0.406103 -0.275985,-0.450746 -0.0024,-0.04465 0.10197,-0.306673 0.231731,-0.582282 l 0.235936,-0.501101 0.79946,-0.22248 0.79946,-0.222479 0.295679,0.401363 0.295677,0.401365 -0.249038,0.548655 -0.249039,0.548655 -0.806051,0.224313 -0.806048,0.224314 z m 3.261314,-0.923865 -0.279924,-0.378225 0.122205,-0.30833 c 0.06719,-0.169587 0.183553,-0.428841 0.258526,-0.576134 l 0.136314,-0.267799 0.64891,-0.180579 0.648905,-0.180584 0.295675,0.401364 0.295675,0.401363 -0.249037,0.548656 -0.249037,0.548651 -0.674149,0.184897 -0.674143,0.184896 -0.279923,-0.378229 z m 2.394011,-1.651458 -0.271793,-0.369573 -0.171758,-3.339712 -0.171757,-3.339709 0.241482,-0.551315 0.241496,-0.551317 0.207804,0.28374 0.207802,0.28373 0.185713,3.593252 0.185717,3.59325 -0.166487,0.376662 c -0.09156,0.207167 -0.17771,0.379791 -0.191449,0.383608 -0.01381,0.0039 -0.147275,-0.15936 -0.296756,-0.362628 z m -6.09888,-6.006719 c -0.149484,-0.203267 -0.273289,-0.398567 -0.275116,-0.433999 -0.0018,-0.03542 0.099,-0.296043 0.224144,-0.5791 l 0.227463,-0.514681 2.461546,-0.677055 2.461542,-0.677051 0.280466,0.409874 0.280466,0.409873 -0.227607,0.529379 -0.227594,0.529384 -2.46676,0.686468 -2.466761,0.686465 z"
       id="path6615" /></g></svg>
