<?xml version="1.0" encoding="UTF-8" standalone="no"?>
<!-- Created with Inkscape (http://www.inkscape.org/) -->

<svg
   width="100"
   height="100"
   viewBox="0 0 26.458333 26.458333"
   version="1.1"
   id="svg5"
   xml:space="preserve"
   inkscape:version="1.2.2 (732a01da63, 2022-12-09)"
   sodipodi:docname="profile.svg"
   xmlns:inkscape="http://www.inkscape.org/namespaces/inkscape"
   xmlns:sodipodi="http://sodipodi.sourceforge.net/DTD/sodipodi-0.dtd"
   xmlns="http://www.w3.org/2000/svg"
   xmlns:svg="http://www.w3.org/2000/svg"><sodipodi:namedview
     id="namedview7"
     pagecolor="#ffffff"
     bordercolor="#000000"
     borderopacity="0.25"
     inkscape:showpageshadow="2"
     inkscape:pageopacity="0.0"
     inkscape:pagecheckerboard="0"
     inkscape:deskcolor="#d1d1d1" 
     inkscape:document-units="mm"
     showgrid="false"
     inkscape:zoom="4.051698"
     inkscape:cx="45.289653"
     inkscape:cy="52.200336"
     inkscape:window-width="1920"
     inkscape:window-height="991"
     inkscape:window-x="-9"
     inkscape:window-y="-9"
     inkscape:window-maximized="1"
     inkscape:current-layer="layer1" /><defs
     id="defs2" /><g
     inkscape:label="Capa 1"
     inkscape:groupmode="layer"
     id="layer1"><path
       style="display:inline;fill:#000000;stroke-width:0.104201"
       d="m 3.0600486,24.009407 c 0.2229529,-3.834121 2.313129,-7.696395 5.1826874,-9.576684 l 0.3990393,-0.261472 0.4276686,0.3988 c 1.0163061,0.947708 2.7768601,1.650256 4.1392971,1.651785 1.60868,0.0018 2.948906,-0.519822 4.40149,-1.713104 l 0.387596,-0.318406 0.564,0.394954 c 2.774311,1.942777 4.740913,5.680421 4.958608,9.424127 l 0.06005,1.032656 H 13.290242 3 Z M 11.899594,14.55336 C 10.817728,14.216149 10.075575,13.715076 9.2532552,12.766657 7.2111057,10.411351 7.0236784,6.8397047 8.8029503,4.1855596 10.858538,1.1192335 14.91394,0.84590709 17.323168,3.6113131 c 2.97911,3.4195391 1.815459,9.1145219 -2.204599,10.7894519 -0.928867,0.387006 -2.263881,0.450293 -3.218975,0.152595 z"
       id="path926"
       inkscape:label="Profile" /></g></svg>
